# xmcd
#
# Track frame offsets:
#	150
#	14609
#	37884
#	50625
#	68962
#	80319
#	96601
#	110388
#	126875
#	137638
#	151962
#	165010
#	181057
#	198493
#	213059
#	233885
#	253298
#	269210
#
# Disc length: 3771 seconds
#
# Revision: 1
# Processed by: cddbd v1.5.2PL0 Copyright (c) Steve Scherf et al.
# Submitted via: audiograbber 1.83.01
#
DISCID=fc0eb912
DTITLE=Various Artist - STC VOL 3
DYEAR=1900
DGENRE=country
TTITLE0=Anne Murray - Could I Have This Dance
TTITLE1=John Dever - Sunshine On My Shoulder
TTITLE2=Alan Jackson - Don't Rock The Jukebox
TTITLE3=Juice Newton - The Sweetest Thing
TTITLE4=Sammi Smith - Help Me Make It Through The Night
TTITLE5=Mickey Gilley - Stand By Me
TTITLE6=Faith Hill - The Way You Love Me (Single Mix)
TTITLE7=Oak Ridge Boys - Elvira
TTITLE8=Stompin' Tom Conners - Bud The Spud
TTITLE9=Mindy McCready - Guys Do It All The Time
TTITLE10=Willie Nelson - Waylon Jennings - Good Hearted Woman
TTITLE11=Nitty Gritty Dirt Band - Mr Bojangles
TTITLE12=Judds - Love Can Build A Bridge
TTITLE13=Eddie Rabbit - Drivin' My Life Away
TTITLE14=Jerry Reed - Eastbound And Down
TTITLE15=Kenny Rogers - Coward Of The Country
TTITLE16=Dan Seals - Good Times
TTITLE17=Ricky Skaggs - I Wouldn't Change You If I Could
EXTD=
EXTT0=
EXTT1=
EXTT2=
EXTT3=
EXTT4=
EXTT5=
EXTT6=
EXTT7=
EXTT8=
EXTT9=
EXTT10=
EXTT11=
EXTT12=
EXTT13=
EXTT14=
EXTT15=
EXTT16=
EXTT17=
PLAYORDER=
